<svg width="28" height="28" viewBox="0 0 28 28" fill="none" xmlns="http://www.w3.org/2000/svg">
<circle cx="14" cy="14" r="14" fill="#22A2FF" fill-opacity="0.1"/>
<g clip-path="url(#clip0_716_59)">
<path d="M12.7428 12.1615L14.6511 14.315C14.6963 14.3695 14.7528 14.3968 14.7923 14.3968C14.8346 14.3968 14.8911 14.3665 14.9363 14.318L17.074 11.9571L18.0271 12.9842L15.6872 15.5174C15.3908 15.8324 15.1028 15.9808 14.7895 15.9808C14.4761 15.9808 14.1769 15.8384 13.8917 15.5144L11.9834 13.3609C11.9382 13.3064 11.8846 13.2822 11.8422 13.2822C11.7971 13.2822 11.7462 13.3125 11.7011 13.3609L9.45679 15.8708V13.7958L10.9502 12.1615C11.2494 11.8253 11.5345 11.6981 11.8451 11.6981C12.1584 11.6981 12.4548 11.8344 12.7428 12.1615Z" fill="#22A2FF"/>
<path d="M20.5935 9.94448L19.7185 13.5336C19.6055 13.997 19.151 14.1908 18.8405 13.8607L16.2857 11.1075C15.9723 10.7713 16.1558 10.2928 16.5905 10.1686L19.9329 9.23878C20.331 9.12671 20.7009 9.51136 20.5935 9.94448Z" fill="#22A2FF"/>
<path d="M8 19.3852C8 19.7335 8.21737 19.9637 8.54484 19.9637H19.9893C20.4072 19.9637 20.7318 19.6426 20.7318 19.1852C20.7318 18.7309 20.4072 18.4039 19.9893 18.4039H9.60912C9.50467 18.4039 9.45667 18.3524 9.45667 18.2403V8.79657C9.45667 8.35134 9.15461 8 8.73116 8C8.30489 8 8 8.35134 8 8.79657V19.3852Z" fill="#22A2FF"/>
</g>
<defs>
<clipPath id="clip0_716_59">
<rect width="13" height="12" fill="white" transform="translate(8 8)"/>
</clipPath>
</defs>
</svg>
