<svg width="28" height="28" viewBox="0 0 28 28" fill="none" xmlns="http://www.w3.org/2000/svg">
<circle cx="14" cy="14" r="14" fill="#F36391" fill-opacity="0.1"/>
<path d="M13.6684 13.3861C13.804 13.1038 14.196 13.1038 14.3316 13.3861L15.4357 15.6829C15.4896 15.795 15.5937 15.8727 15.7142 15.8907L18.1829 16.259C18.4863 16.3043 18.6074 16.6871 18.3879 16.9067L16.6015 18.6946C16.5144 18.7818 16.4746 18.9075 16.4952 19.0307L16.9169 21.5552C16.9687 21.8654 16.6515 22.102 16.3802 21.9555L14.1721 20.7636C14.0644 20.7055 13.9356 20.7055 13.8279 20.7636L11.6198 21.9555C11.3485 22.102 11.0313 21.8654 11.0831 21.5552L11.5048 19.0307C11.5254 18.9075 11.4856 18.7818 11.3985 18.6946L9.61211 16.9067C9.39256 16.6871 9.51373 16.3043 9.81708 16.259L12.2858 15.8907C12.4063 15.8727 12.5104 15.795 12.5643 15.6829L13.6684 13.3861Z" stroke="#F36391" stroke-width="1.8" stroke-linecap="round" stroke-linejoin="round"/>
<path d="M18.4383 7H9.56177V10.7974L14 12.6961L18.4383 10.7974V7Z" stroke="#F36391" stroke-width="1.8" stroke-linecap="round" stroke-linejoin="round"/>
</svg>
