<svg width="28" height="28" viewBox="0 0 28 28" fill="none" xmlns="http://www.w3.org/2000/svg">
<circle cx="14" cy="14" r="14" fill="#FF6026" fill-opacity="0.1"/>
<g clip-path="url(#clip0_716_48)">
<path d="M17.3828 7C19.8969 7 21.9998 9.05342 22 12.1006C22 15.4352 19.2247 18.7509 14.9961 21.5459C14.6425 21.7749 14.2576 22 14 22C13.7386 22 13.3576 21.7749 13.0078 21.5459C8.77535 18.7509 6 15.4352 6 12.1006C6.00016 9.05342 8.10311 7 10.6172 7C12.1855 7.00007 13.3311 7.8772 14 9.13867C14.6766 7.87333 15.8107 7.00006 17.3828 7ZM13.3789 10.292C13.3147 9.90823 12.7384 9.89929 12.6533 10.2871L11.8555 13.8994H10.3965C10.1741 13.8994 10 14.0704 10 14.2832C10 14.4941 10.1741 14.6621 10.3965 14.6621H12.1182C12.3463 14.6621 12.4995 14.5539 12.5479 14.3506L12.998 12.3281L13.9131 17.7051C13.9808 18.0987 14.5955 18.0969 14.6748 17.707L15.5371 13.7373L15.6572 14.3135C15.7037 14.5432 15.8491 14.6621 16.0889 14.6621H17.6016C17.824 14.6621 18 14.4941 18 14.2832C18 14.0629 17.8278 13.8994 17.6016 13.8994H16.3145L15.8916 12.0645C15.8044 11.688 15.2383 11.694 15.1377 12.0781L14.2959 15.7363L13.3789 10.292Z" fill="#FF6026"/>
</g>
<defs>
<clipPath id="clip0_716_48">
<rect width="16" height="15" fill="white" transform="translate(6 7)"/>
</clipPath>
</defs>
</svg>
