<svg width="28" height="28" viewBox="0 0 28 28" fill="none" xmlns="http://www.w3.org/2000/svg">
<circle cx="14" cy="14" r="14" fill="#8F1BFF" fill-opacity="0.1"/>
<g clip-path="url(#clip0_716_35)">
<path d="M12.4989 18.8283C12.4989 20.0267 11.4931 21 10.251 21C9.01191 21 8.0061 20.0267 8.0061 18.8283C8.0061 17.6359 9.01191 16.6626 10.251 16.6626C11.4931 16.6626 12.4989 17.6359 12.4989 18.8283ZM9.40575 18.8283C9.40575 19.2872 9.77838 19.6497 10.251 19.6497C10.7357 19.6497 11.1023 19.2902 11.1023 18.8283C11.1023 18.3607 10.7357 18.0129 10.251 18.0129C9.77536 18.0129 9.40575 18.3637 9.40575 18.8283Z" fill="#D633FF"/>
<path d="M15.283 9.16576C15.283 9.44223 15.3367 9.70672 15.4366 9.94906H11.6112C10.2873 9.94906 9.56324 10.4751 9.56324 11.3578C9.56324 12.258 10.36 12.8397 12.2232 13.0267L15.7677 13.3833C18.3974 13.6405 19.7758 14.8213 19.7758 16.6422C19.7758 18.428 18.352 19.5562 16.304 19.5562H16.104V20.2518C16.104 20.7106 15.689 20.8656 15.3497 20.6113L13.4259 19.1382C13.1745 18.9453 13.1714 18.6472 13.4259 18.4572L15.3466 16.9812C15.689 16.7211 16.104 16.8789 16.104 17.3466V18.048H16.304C17.4855 18.048 18.2126 17.5248 18.2126 16.6422C18.2126 15.742 17.4128 15.1603 15.5496 14.9733L11.999 14.6167C9.37238 14.3595 8 13.1787 8 11.3578C8 9.57202 9.42086 8.44092 11.6112 8.44092H15.4156C15.3289 8.66695 15.283 8.91137 15.283 9.16576Z" fill="#D633FF"/>
<path d="M17.5278 11.3374C18.77 11.3374 19.7758 10.3641 19.7758 9.16576C19.7758 7.97328 18.77 7 17.5278 7C16.2918 7 15.283 7.97328 15.283 9.16576C15.283 10.3641 16.2918 11.3374 17.5278 11.3374Z" fill="#D633FF"/>
</g>
<defs>
<clipPath id="clip0_716_35">
<rect width="12" height="14" fill="white" transform="translate(8 7)"/>
</clipPath>
</defs>
</svg>
