<svg width="28" height="28" viewBox="0 0 28 28" fill="none" xmlns="http://www.w3.org/2000/svg">
<circle cx="14" cy="14" r="14" fill="#46F745" fill-opacity="0.1"/>
<g clip-path="url(#clip0_716_22)">
<path d="M13.2785 18.7496V20.3494C10.2971 20.0601 7.92125 17.6487 7.63351 14.6218H9.2078C9.47833 16.7734 11.1574 18.4774 13.2785 18.7496ZM14.4948 20.3493V18.7492C16.6174 18.4761 18.2978 16.7726 18.5686 14.6218H20.143C19.855 17.6478 17.4777 20.0587 14.4948 20.3493ZM20.1434 13.3879H18.5701C18.3029 11.233 16.6206 9.52709 14.4948 9.25397V7.65718C17.4807 7.94767 19.8597 10.3604 20.1434 13.3879ZM13.2785 9.25359C11.1542 9.52578 9.47327 11.2322 9.20635 13.3879H7.63306C7.91652 10.3595 10.2941 7.94627 13.2785 7.65704V9.25359Z" fill="#46F745"/>
<path d="M13.885 11.5482C14.2298 11.5482 14.4948 11.2729 14.4948 10.9264V6.63162C14.4948 6.28506 14.2298 6.00652 13.885 6.00652C13.5435 6.00652 13.2785 6.28506 13.2785 6.63162V10.9264C13.2785 11.2729 13.5435 11.5482 13.885 11.5482ZM6.61293 14.6219H10.8492C11.1907 14.6219 11.4621 14.3498 11.4621 14.0033C11.4621 13.6567 11.1907 13.3879 10.8492 13.3879H6.61293C6.27135 13.3879 6 13.6567 6 14.0033C6 14.3498 6.27135 14.6219 6.61293 14.6219ZM13.885 22C14.2298 22 14.4948 21.7248 14.4948 21.3782V17.0834C14.4948 16.7336 14.2298 16.4616 13.885 16.4616C13.5435 16.4616 13.2785 16.7336 13.2785 17.0834V21.3782C13.2785 21.7248 13.5435 22 13.885 22ZM16.9146 14.6219H21.1476C21.4924 14.6219 21.7637 14.3498 21.7637 14.0033C21.7637 13.6567 21.4924 13.3879 21.1476 13.3879H16.9146C16.573 13.3879 16.3016 13.6567 16.3016 14.0033C16.3016 14.3498 16.573 14.6219 16.9146 14.6219Z" fill="#46F745"/>
<path d="M13.8819 15.1725C14.5171 15.1725 15.0344 14.6478 15.0344 14.0032C15.0344 13.3587 14.5171 12.834 13.8819 12.834C13.2466 12.834 12.7295 13.3587 12.7295 14.0032C12.7295 14.6478 13.2466 15.1725 13.8819 15.1725Z" fill="#46F745"/>
</g>
<defs>
<clipPath id="clip0_716_22">
<rect width="16" height="16" fill="white" transform="translate(6 6)"/>
</clipPath>
</defs>
</svg>
