<svg width="40" height="40" viewBox="0 0 40 40" fill="none" xmlns="http://www.w3.org/2000/svg">
<circle cx="20" cy="20" r="20" fill="#22A2FF" fill-opacity="0.1"/>
<path d="M20.9789 12.8496V13.6382C22.6029 13.8271 24.0803 14.4969 25.2516 15.4966L25.8187 14.9716C26.0421 14.767 26.2618 14.6794 26.576 14.6794C27.1062 14.6794 27.5191 15.0811 27.5191 15.5888C27.5191 15.8408 27.4092 16.0819 27.1858 16.2937L26.5575 16.8969C27.4669 18.1434 28 19.6589 28 21.2864C28 25.5194 24.391 29 19.9981 29C15.6128 29 12 25.5194 12 21.2864C12 17.3709 15.0825 14.1044 19.0135 13.6379V12.8496C19.0135 12.3127 19.4717 11.9 19.9981 11.9C20.5472 11.9 20.9789 12.3127 20.9789 12.8496ZM19.2861 16.7685V20.1067C18.8204 20.388 18.559 20.8006 18.559 21.29C18.559 22.068 19.199 22.6852 19.9981 22.6852C20.7972 22.6852 21.441 22.068 21.441 21.29C21.441 20.7897 21.1759 20.377 20.7063 20.1176V16.7685C20.7063 16.3887 20.3919 16.0892 19.9943 16.0892C19.5929 16.0892 19.2861 16.3887 19.2861 16.7685Z" fill="#22A2FF"/>
<path d="M16.9129 11.825C16.9129 11.3694 17.2992 11 17.7757 11H21.9796C22.4561 11 22.8424 11.3694 22.8424 11.825C22.8424 12.2806 22.4561 12.65 21.9796 12.65H17.7757C17.2992 12.65 16.9129 12.2806 16.9129 11.825Z" fill="#22A2FF"/>
</svg>
