<svg width="40" height="40" viewBox="0 0 40 40" fill="none" xmlns="http://www.w3.org/2000/svg">
<circle cx="20" cy="20" r="20" fill="#FF6026" fill-opacity="0.1"/>
<g clip-path="url(#clip0_1088_12)">
<path d="M19.6094 28C24.0422 28 27 25 27 20.498C27 13.1044 20.6817 10 16.3764 10C15.4396 10 14.8098 10.3855 14.8098 11.0924C14.8098 11.3655 14.9294 11.6546 15.1327 11.8956C16.1811 13.1767 17.0182 14.3735 17.0262 15.8514C17.0262 16.0642 17.0063 16.249 16.8707 16.51L17.1857 16.4217C16.6515 15.0602 15.8622 14.498 15.1287 14.498C14.6703 14.498 14.3593 14.8072 14.3593 15.3213C14.3593 15.6385 14.4191 16.004 14.4191 16.4659C14.4191 18.3735 13 19.1446 13 22.2168C13 25.6868 15.639 28 19.6094 28ZM19.8166 25.1446C18.3417 25.1446 17.365 24.2651 17.365 22.9438C17.365 21.5823 18.3058 21.1807 18.4254 20.1164C18.4374 19.9839 18.5729 19.9036 18.7005 20.0201C19.0234 20.3374 19.2466 20.735 19.422 21.245C19.8087 20.5422 19.8884 19.498 19.7289 18.3614C19.6971 18.1928 19.8326 18.1124 19.9761 18.1687C21.6544 18.9117 22.5991 20.5783 22.5991 22.249C22.5991 23.8755 21.5985 25.1446 19.8166 25.1446Z" fill="#FF6026"/>
</g>
<defs>
<clipPath id="clip0_1088_12">
<rect width="16" height="22" fill="white" transform="translate(12 9)"/>
</clipPath>
</defs>
</svg>
