<svg width="32" height="27" viewBox="0 0 32 27" fill="none" xmlns="http://www.w3.org/2000/svg">
<path d="M5.6 23.4H26.4C27.06 23.4 27.6 23.94 27.6 24.6V25.2C27.6 25.86 27.06 26.4 26.4 26.4H5.6C4.94 26.4 4.4 25.86 4.4 25.2V24.6C4.4 23.94 4.94 23.4 5.6 23.4Z" fill="#111111"/>
<path d="M4.08 20.96L1.68 8.92C1.54 8.22 2.31 7.68 2.91 8.07L10.28 12.83L15.28 2.08C15.58 1.43 16.42 1.43 16.72 2.08L21.72 12.83L29.09 8.07C29.69 7.68 30.46 8.22 30.32 8.92L27.92 20.96C27.83 21.43 27.42 21.76 26.94 21.76H5.06C4.58 21.76 4.17 21.43 4.08 20.96Z" fill="#111111"/>
<circle cx="2.8" cy="7.2" r="2.4" fill="#111111"/>
<circle cx="16" cy="2.4" r="2.4" fill="#111111"/>
<circle cx="29.2" cy="7.2" r="2.4" fill="#111111"/>
</svg>
