<svg width="40" height="40" viewBox="0 0 40 40" fill="none" xmlns="http://www.w3.org/2000/svg">
<circle cx="20" cy="20" r="20" fill="#FF6026" fill-opacity="0.1"/>
<path d="M11.1113 20C11.1113 15.0908 15.0908 11.1113 20 11.1113C20.4909 11.1113 20.8887 11.5091 20.8887 12C20.8887 12.4909 20.4909 12.8887 20 12.8887C16.0727 12.8887 12.8887 16.0727 12.8887 20C12.8887 23.9273 16.0727 27.1113 20 27.1113C23.9273 27.1113 27.1113 23.9273 27.1113 20C27.1113 19.5091 27.5091 19.1113 28 19.1113C28.4909 19.1113 28.8887 19.5091 28.8887 20C28.8887 24.9092 24.9092 28.8887 20 28.8887C15.0908 28.8887 11.1113 24.9092 11.1113 20Z" fill="#FF6026"/>
<path d="M15.1113 20C15.1113 17.2999 17.2999 15.1113 20 15.1113C20.4909 15.1113 20.8887 15.5091 20.8887 16C20.8887 16.4909 20.4909 16.8887 20 16.8887C18.2818 16.8887 16.8887 18.2818 16.8887 20C16.8887 21.7182 18.2818 23.1113 20 23.1113C21.7182 23.1113 23.1113 21.7182 23.1113 20C23.1113 19.5091 23.5091 19.1113 24 19.1113C24.4909 19.1113 24.8887 19.5091 24.8887 20C24.8887 22.7001 22.7001 24.8887 20 24.8887C17.2999 24.8887 15.1113 22.7001 15.1113 20Z" fill="#FF6026"/>
<path d="M22.1709 16.5695C22.5179 16.2222 23.0814 16.2216 23.4287 16.5685C23.7758 16.9155 23.7755 17.4781 23.4287 17.8254L20.6289 20.6281C20.282 20.9753 19.7194 20.9758 19.3721 20.6291C19.0249 20.2822 19.0244 19.7196 19.3711 19.3723L22.1709 16.5695Z" fill="#FF6026"/>
<path d="M22.7999 14.4117V17.2H25.6111L28 14.8001H25.2014V12L22.7999 14.4117Z" fill="#FF6026"/>
<path d="M24.5714 11.373C24.8253 11.118 25.2085 11.0414 25.5411 11.1787C25.8735 11.3162 26.09 11.6403 26.09 12V13.9111H28.0001C28.3592 13.9112 28.6826 14.1275 28.8204 14.459C28.9582 14.7905 28.8832 15.1722 28.63 15.4268L26.2413 17.8271C26.0746 17.9946 25.8478 18.0888 25.6114 18.0889H22.7999C22.3091 18.0889 21.9113 17.691 21.9112 17.2002V14.4121C21.9112 14.177 22.0042 13.9508 22.17 13.7842L24.5714 11.373ZM23.6886 14.7783V16.3115H25.2423L25.8614 15.6895H25.2013C24.7104 15.6894 24.3126 15.2907 24.3126 14.7998V14.1514L23.6886 14.7783Z" fill="#FF6026"/>
</svg>
