<svg width="40" height="40" viewBox="0 0 40 40" fill="none" xmlns="http://www.w3.org/2000/svg">
<circle cx="20" cy="20" r="20" fill="#46F745" fill-opacity="0.1"/>
<g clip-path="url(#clip0_1131_64)">
<path d="M13.9747 28H25.7177C27.639 28 28.6881 26.9593 28.6881 25.0659V14.9509C28.6881 13.0533 27.639 12.0167 25.7177 12.0167H13.9747C12.0534 12.0167 11 13.0491 11 14.9509V25.0659C11 26.9635 12.0534 28 13.9747 28ZM14.1348 25.8433C13.5028 25.8433 13.1742 25.5423 13.1742 24.8819V17.442C13.1742 16.7858 13.5028 16.4849 14.1348 16.4849H25.5492C26.1812 16.4849 26.514 16.7858 26.514 17.442V24.8819C26.514 25.5423 26.1812 25.8433 25.5492 25.8433H14.1348Z" fill="#46F745"/>
<path d="M23.8385 22.5329C24.5801 22.5329 25.1868 21.9352 25.1868 21.1996C25.1868 20.4639 24.5801 19.8662 23.8385 19.8662C23.1011 19.8662 22.4944 20.4639 22.4944 21.1996C22.4944 21.9352 23.1011 22.5329 23.8385 22.5329Z" fill="#46F745"/>
<path d="M19.8482 22.5329C20.5898 22.5329 21.1923 21.9352 21.1923 21.1996C21.1923 20.4639 20.5898 19.8662 19.8482 19.8662C19.1109 19.8662 18.5042 20.4639 18.5042 21.1996C18.5042 21.9352 19.1109 22.5329 19.8482 22.5329Z" fill="#46F745"/>
<path d="M15.8624 22.5329C16.604 22.5329 17.2065 21.9352 17.2065 21.1996C17.2065 20.4639 16.5998 19.8662 15.8624 19.8662C15.1208 19.8662 14.5183 20.4639 14.5183 21.1996C14.5183 21.9352 15.1208 22.5329 15.8624 22.5329Z" fill="#46F745"/>
</g>
<defs>
<clipPath id="clip0_1131_64">
<rect width="18" height="16" fill="white" transform="translate(11 12)"/>
</clipPath>
</defs>
</svg>
