<svg width="40" height="40" viewBox="0 0 40 40" fill="none" xmlns="http://www.w3.org/2000/svg">
<circle cx="20" cy="20" r="20" fill="#D633FF" fill-opacity="0.1"/>
<path d="M20.5 11C22.4889 11.0001 24.3963 11.8031 25.8027 13.2311C27.209 14.6592 28 16.5959 28 18.6154C28 21.5949 26.1459 24.1823 24.5576 25.8847C23.7358 26.7655 22.9187 27.4803 22.3084 27.9738C22.0026 28.2211 21.7456 28.4157 21.5627 28.5499C21.4716 28.6166 21.3975 28.6689 21.3456 28.7054C21.3202 28.7233 21.2992 28.7384 21.2844 28.7486C21.2772 28.7535 21.2703 28.7577 21.2657 28.7608L21.2604 28.7649L21.2577 28.7662L20.5 27.6155L21.2564 28.7676C20.7985 29.0775 20.2016 29.0773 19.7436 28.7676L19.7423 28.7662L19.7396 28.7649L19.7343 28.7608C19.7298 28.7577 19.7228 28.7536 19.7156 28.7486C19.7008 28.7384 19.6799 28.7233 19.6544 28.7054C19.6026 28.6689 19.5284 28.6167 19.4373 28.5499C19.2544 28.4157 18.9974 28.2211 18.6916 27.9738C18.0813 27.4804 17.2643 26.7656 16.4424 25.8847C14.854 24.1823 13 21.5951 13 18.6154C13 16.5957 13.7908 14.6593 15.1973 13.2311C16.6038 11.8031 18.511 11 20.5 11ZM20.5 15.1539C18.6172 15.1539 17.0909 16.7036 17.0909 18.6154C17.0909 20.5272 18.6172 22.077 20.5 22.077C22.3826 22.0767 23.9091 20.527 23.9091 18.6154C23.9091 16.7038 22.3826 15.1542 20.5 15.1539Z" fill="#D633FF"/>
</svg>
