<svg width="40" height="40" viewBox="0 0 40 40" fill="none" xmlns="http://www.w3.org/2000/svg">
<rect width="40" height="40" rx="12" fill="#D633FF" fill-opacity="0.1"/>
<path d="M27.1409 14.7982L23.3382 18.4147V28.6154C23.3382 28.9944 23.1951 29.32 22.9089 29.592C22.6227 29.864 22.2778 30 21.8767 30C21.4779 30 21.1354 29.864 20.8492 29.592C20.563 29.3177 20.4175 28.9922 20.4175 28.6109V23.8595H19.5871V28.6109C19.5871 28.99 19.444 29.3155 19.1577 29.5875C18.8715 29.8595 18.5267 29.9955 18.1302 29.9955C17.7338 29.9955 17.3889 29.8595 17.1027 29.5875C16.8165 29.3155 16.6734 28.9877 16.6734 28.6109V18.4147L12.866 14.7982C12.6243 14.5686 12.5 14.2876 12.5 13.9576C12.5 13.6254 12.622 13.3445 12.866 13.1171C13.1146 12.8874 13.4126 12.7692 13.7574 12.7692C14.0999 12.7692 14.3932 12.8852 14.6371 13.1171L17.6047 15.9353H22.3975L25.3651 13.1148C25.6067 12.8852 25.9046 12.767 26.2495 12.767C26.599 12.767 26.8946 12.8829 27.1339 13.1148C27.3755 13.3512 27.4999 13.6366 27.4999 13.9621C27.5046 14.2921 27.3802 14.5686 27.1409 14.7982ZM22.0667 10.8071C22.6344 11.3467 22.9159 12.0022 22.9159 12.7692C22.9159 13.5362 22.6321 14.1895 22.0667 14.7313C21.499 15.2709 20.8093 15.5385 20.0023 15.5385C19.1929 15.5385 18.5079 15.2687 17.9379 14.7313C17.3701 14.1918 17.0886 13.5362 17.0886 12.7692C17.0886 12.0022 17.3725 11.3489 17.9379 10.8071C18.5056 10.2676 19.1953 10 20.0023 10C20.8093 10 21.499 10.2698 22.0667 10.8071Z" fill="#D633FF"/>
</svg>
