<svg width="40" height="40" viewBox="0 0 40 40" fill="none" xmlns="http://www.w3.org/2000/svg">
<rect width="40" height="40" rx="12" fill="#22A2FF" fill-opacity="0.1"/>
<path d="M27.225 11.5H12.775C12.0708 11.5 11.5 12.0708 11.5 12.775V27.225C11.5 27.9292 12.0708 28.5 12.775 28.5H27.225C27.9292 28.5 28.5 27.9292 28.5 27.225V12.775C28.5 12.0708 27.9292 11.5 27.225 11.5Z" fill="#22A2FF" stroke="#22A2FF" stroke-width="1.7" stroke-linejoin="round"/>
<path d="M14.9 17.8979C16.3131 16.1979 18.0131 15.3479 20 15.3479C21.9869 15.3479 23.6869 16.1979 25.1 17.8979" stroke="white" stroke-width="1.7" stroke-linecap="round"/>
<path d="M20 22.9748C20.7042 22.9748 21.275 22.404 21.275 21.6998C21.275 20.9956 20.7042 20.4248 20 20.4248C19.2958 20.4248 18.725 20.9956 18.725 21.6998C18.725 22.404 19.2958 22.9748 20 22.9748Z" fill="white"/>
<path d="M17.875 18.7249L20.0035 21.6999" stroke="white" stroke-width="1.7" stroke-linecap="round"/>
</svg>
