<svg width="40" height="40" viewBox="0 0 40 40" fill="none" xmlns="http://www.w3.org/2000/svg">
<rect width="40" height="40" rx="12" fill="#FF6026" fill-opacity="0.1"/>
<path d="M31.3301 24.6453H28.7674V15.9238H31.3301V24.6453Z" fill="#FF6026"/>
<path d="M27.5526 24.6453H25.3163V19.5925H25.268L23.3037 24.5425H21.9317L19.9674 19.5925H19.9191V24.6453H17.6828V15.9238H20.6444L22.5966 21.0128H22.6449L24.5911 15.9238H27.5526V24.6453Z" fill="#FF6026"/>
<path d="M13.7603 24.6453H9.33008V15.9238H13.6152C15.3982 15.9238 16.4438 16.7398 16.4438 18.0997C16.4438 19.1029 15.6823 19.8584 14.6729 19.9854V20.0337C15.8515 20.0639 16.8367 20.9524 16.8367 22.1068C16.8367 23.6359 15.6279 24.6453 13.7603 24.6453ZM11.8927 17.6826V19.4172H12.8839C13.5427 19.4172 13.9537 19.0727 13.9537 18.5469C13.9537 18.009 13.5669 17.6826 12.9202 17.6826H11.8927ZM11.8927 22.8865H12.9867C13.7784 22.8865 14.2317 22.5299 14.2317 21.8711C14.2317 21.2486 13.7724 20.8859 13.0048 20.8859H11.8927V22.8865Z" fill="#FF6026"/>
</svg>
