<svg width="40" height="40" viewBox="0 0 40 40" fill="none" xmlns="http://www.w3.org/2000/svg">
<circle cx="20" cy="20" r="20" fill="#22A2FF" fill-opacity="0.1"/>
<g clip-path="url(#clip0_1148_9)">
<path d="M16.5503 29H23.5466C25.0178 29 26 27.9974 26 26.5018V12.4983C26 10.9985 25.0178 10 23.5466 10H16.5503C15.0226 10 14 10.9985 14 12.4942V26.5059C14 27.9974 15.0226 29 16.5503 29ZM16.8131 15.9457C16.2028 15.9457 15.8269 15.5882 15.8269 15.0048V12.9174C15.8269 12.338 16.2028 11.9805 16.8131 11.9805H18.741C19.3513 11.9805 19.7231 12.338 19.7231 12.9174V15.0048C19.7231 15.5882 19.3513 15.9457 18.741 15.9457H16.8131Z" fill="#22A2FF"/>
</g>
<defs>
<clipPath id="clip0_1148_9">
<rect width="12" height="19" fill="white" transform="translate(14 10)"/>
</clipPath>
</defs>
</svg>
