<svg width="40" height="40" viewBox="0 0 40 40" fill="none" xmlns="http://www.w3.org/2000/svg">
<circle cx="20" cy="20" r="20" fill="#FF6026" fill-opacity="0.1"/>
<g clip-path="url(#clip0_1148_3)">
<path d="M27.6395 18.1709C29.2436 18.8233 30.2076 20.3651 30.2076 22.0583C30.2076 24.4039 28.1492 26.2757 25.5651 26.2757H14.5811C11.7166 26.2757 9.5 24.2174 9.5 21.7204C9.5 19.7087 10.63 18.0583 12.4712 17.6854C12.6056 15.4757 14.6957 13.9845 16.7898 14.4583C17.8565 12.9709 19.512 12 21.5587 12C24.9922 12 27.6395 14.5825 27.6395 18.1709ZM21.7918 16.8194L19.2434 20.9476L17.9276 19.3553C17.7578 19.1456 17.5444 19.033 17.2836 19.033C16.8411 19.033 16.4776 19.3748 16.4776 19.8175C16.4776 20.0155 16.5487 20.1903 16.7068 20.3806L18.4769 22.4815C18.6902 22.7379 18.9471 22.8815 19.2631 22.8815C19.5674 22.8815 19.8439 22.7262 20.0217 22.4621L23.1273 17.6583C23.2379 17.499 23.3209 17.3087 23.3209 17.1223C23.3209 16.699 22.9376 16.3806 22.4991 16.3806C22.2106 16.3806 21.9697 16.5282 21.7918 16.8194Z" fill="#FF6026"/>
</g>
<defs>
<clipPath id="clip0_1148_3">
<rect width="21" height="16" fill="white" transform="translate(9.5 12)"/>
</clipPath>
</defs>
</svg>
