<svg width="40" height="40" viewBox="0 0 40 40" fill="none" xmlns="http://www.w3.org/2000/svg">
<circle cx="20" cy="20" r="20" fill="#46F745" fill-opacity="0.1"/>
<g clip-path="url(#clip0_1093_3)">
<path d="M19.008 26.5307V28.7304C14.9085 28.3327 11.6417 25.017 11.2461 20.855H13.4108C13.7827 23.8135 16.0915 26.1565 19.008 26.5307ZM20.6804 28.7302V26.5302C23.599 26.1547 25.9095 23.8123 26.2819 20.855H28.4466C28.0506 25.0158 24.7819 28.3308 20.6804 28.7302ZM28.4472 19.1583H26.2839C25.9165 16.1954 23.6034 13.8498 20.6804 13.4742V11.2786C24.786 11.6781 28.0571 14.9955 28.4472 19.1583ZM19.008 13.4737C16.0871 13.848 13.7758 16.1942 13.4088 19.1583H11.2455C11.6352 14.9943 14.9045 11.6761 19.008 11.2784V13.4737Z" fill="#46F745"/>
<path d="M19.8419 16.6288C20.316 16.6288 20.6804 16.2502 20.6804 15.7737V9.86846C20.6804 9.39194 20.316 9.00894 19.8419 9.00894C19.3723 9.00894 19.008 9.39194 19.008 9.86846V15.7737C19.008 16.2502 19.3723 16.6288 19.8419 16.6288ZM9.84278 20.8551H15.6676C16.1373 20.8551 16.5104 20.481 16.5104 20.0045C16.5104 19.528 16.1373 19.1583 15.6676 19.1583H9.84278C9.3731 19.1583 9 19.528 9 20.0045C9 20.481 9.3731 20.8551 9.84278 20.8551ZM19.8419 31C20.316 31 20.6804 30.6215 20.6804 30.145V24.2397C20.6804 23.7587 20.316 23.3847 19.8419 23.3847C19.3723 23.3847 19.008 23.7587 19.008 24.2397V30.145C19.008 30.6215 19.3723 31 19.8419 31ZM24.0075 20.8551H29.8279C30.302 20.8551 30.6751 20.481 30.6751 20.0045C30.6751 19.528 30.302 19.1583 29.8279 19.1583H24.0075C23.5379 19.1583 23.1647 19.528 23.1647 20.0045C23.1647 20.481 23.5379 20.8551 24.0075 20.8551Z" fill="#46F745"/>
<path d="M19.8376 21.6121C20.711 21.6121 21.4222 20.8907 21.4222 20.0044C21.4222 19.1183 20.711 18.3967 19.8376 18.3967C18.9641 18.3967 18.253 19.1183 18.253 20.0044C18.253 20.8907 18.9641 21.6121 19.8376 21.6121Z" fill="#46F745"/>
</g>
<defs>
<clipPath id="clip0_1093_3">
<rect width="22" height="22" fill="white" transform="translate(9 9)"/>
</clipPath>
</defs>
</svg>
