<svg width="40" height="40" viewBox="0 0 40 40" fill="none" xmlns="http://www.w3.org/2000/svg">
<circle cx="20" cy="20" r="20" fill="#46F745" fill-opacity="0.1"/>
<g clip-path="url(#clip0_1135_115)">
<path d="M23.2497 11.8946C22.7647 12.5832 22.4807 13.4213 22.4807 14.3221C22.4807 16.6624 24.3979 18.5839 26.7382 18.5839C27.4343 18.5839 28.0945 18.4127 28.6767 18.1072C28.8694 18.8218 28.9663 19.5746 28.9663 20.35C28.9663 25.3804 24.8815 29.4696 19.8424 29.4696C14.812 29.4696 10.7229 25.3804 10.7229 20.35C10.7229 15.3152 14.812 11.2304 19.8424 11.2304C21.048 11.2304 22.1989 11.4642 23.2497 11.8946ZM19.0048 15.4664V20.0003H15.7447C15.274 20.0003 14.907 20.3673 14.907 20.8336C14.907 21.3043 15.274 21.6713 15.7447 21.6713H19.8382C20.3088 21.6713 20.6758 21.3043 20.6758 20.8336V15.4664C20.6758 14.9957 20.3088 14.633 19.8382 14.633C19.3718 14.633 19.0048 14.9957 19.0048 15.4664Z" fill="#46F745"/>
<path d="M26.7381 17.2842C28.3531 17.2842 29.7002 15.9456 29.7002 14.3264C29.7002 12.7029 28.3531 11.3643 26.7381 11.3643C25.1188 11.3643 23.776 12.7029 23.776 14.3264C23.776 15.9456 25.1188 17.2842 26.7381 17.2842Z" fill="#46F745"/>
</g>
<defs>
<clipPath id="clip0_1135_115">
<rect width="22" height="20.5794" fill="white" transform="translate(9 10.0646)"/>
</clipPath>
</defs>
</svg>
