<svg width="40" height="40" viewBox="0 0 40 40" fill="none" xmlns="http://www.w3.org/2000/svg">
<circle cx="20" cy="20" r="20" fill="#FF6026" fill-opacity="0.1"/>
<g clip-path="url(#clip0_1157_27)">
<path d="M18.1579 12.9851C19.2374 12.9851 20.1112 12.0954 20.1112 10.9996C20.1112 9.88974 19.2374 9 18.1579 9C17.0875 9 16.2092 9.88974 16.2092 10.9996C16.2092 12.0954 17.0875 12.9851 18.1579 12.9851ZM19.7361 27.2584C20.3079 28.4478 22.0141 27.7079 21.4011 26.4248L19.9237 23.3482C19.791 23.0673 19.6171 22.7816 19.4296 22.5194L18.35 20.9506L18.4095 20.7586C18.7068 19.8314 18.8304 19.2835 18.8898 18.3844L19.0591 15.8557C19.146 14.5866 18.3958 13.6547 17.1698 13.6547C16.2367 13.6547 15.6054 14.1371 14.7683 14.98L13.4646 16.2959C13.0346 16.7267 12.8837 17.0966 12.8333 17.6867L12.6778 19.7612C12.6321 20.3372 12.9477 20.7352 13.46 20.754C13.9815 20.7961 14.3063 20.4636 14.3566 19.8736L14.5442 17.6352L15.0976 17.1294C15.2852 16.9608 15.5414 17.0545 15.5322 17.2839L15.3996 19.1008C15.3264 20.0562 15.5322 20.5573 16.2046 21.4236L17.9475 23.6433C18.103 23.854 18.1305 23.9383 18.2082 24.0928L19.7361 27.2584ZM23.0388 17.0779H21.1038L19.9922 15.8182L19.8275 18.1175L20.1157 18.4125C20.404 18.7075 20.6647 18.8011 21.1999 18.8011H23.0388C23.6106 18.8011 23.9811 18.4687 23.9811 17.9442C23.9811 17.415 23.6014 17.0779 23.0388 17.0779ZM13.8671 28.0591L16.4379 24.9451C16.6987 24.6266 16.7581 24.547 16.8405 24.2146L16.932 23.9102L15.459 22.023L15.0885 23.7791L12.5772 26.8135C11.6943 27.8812 13.1352 28.9395 13.8671 28.0591ZM26.0075 20.0515C26.1539 20.3934 26.5885 20.5526 26.959 20.3793L31.2544 18.3282C31.6111 18.1503 31.7621 17.7194 31.5929 17.3448C31.4373 17.003 31.0165 16.8484 30.646 17.0264L26.346 19.0774C25.9938 19.2507 25.8292 19.6862 26.0075 20.0515ZM26.497 27.5159L27.5125 27.4504C27.6681 27.4457 27.7916 27.4457 27.9288 27.4691L29.5069 18.2346L27.9699 18.9322L26.497 27.5159ZM9.67243 30.9859H27.8282C28.5051 30.9859 29.0449 30.4287 29.0449 29.7215C29.0449 28.9067 28.4182 28.4385 27.6132 28.4946L9.66786 29.5904C9.29733 29.6232 9 29.9089 9 30.2975C9 30.6768 9.30191 30.9859 9.67243 30.9859Z" fill="#FF6026"/>
</g>
<defs>
<clipPath id="clip0_1157_27">
<rect width="23" height="22" fill="white" transform="translate(9 9)"/>
</clipPath>
</defs>
</svg>
