<svg width="40" height="40" viewBox="0 0 40 40" fill="none" xmlns="http://www.w3.org/2000/svg">
<circle cx="20" cy="20" r="20" fill="#46F745" fill-opacity="0.1"/>
<g clip-path="url(#clip0_1157_38)">
<path d="M22.6942 13.5947C23.9638 13.5947 24.994 12.5645 24.994 11.2949C24.994 10.0254 23.9638 9 22.6942 9C21.4247 9 20.3993 10.0254 20.3993 11.2949C20.3993 12.5645 21.4247 13.5947 22.6942 13.5947ZM19.1542 22.418L22.8944 24.5225L20.5019 26.5781C19.955 27.0371 19.911 27.6963 20.2919 28.1211C20.6825 28.5557 21.3319 28.5996 21.9081 28.1162L25.3895 25.1475C25.912 24.6982 25.8241 23.7607 25.204 23.3555L21.4735 20.9141L22.2011 18.3652C22.2841 18.0674 22.621 18.0234 22.8017 18.292L23.9149 19.9229C24.1981 20.333 24.7304 20.4844 25.1893 20.2744L28.3925 18.8486C29.0028 18.5703 29.2372 18.0185 28.9686 17.457C28.7001 16.915 28.163 16.7441 27.5526 17.0127L25.0868 18.1016L23.3827 15.7529C22.4452 14.459 21.2782 13.9512 19.413 14.0879L15.8632 14.3369C15.2626 14.3809 14.8378 14.7812 14.7499 15.4062L14.2714 19C14.1786 19.6787 14.5253 20.1621 15.1454 20.2305C15.7558 20.2842 16.1561 19.9277 16.2489 19.249L16.6688 16.3877L18.0165 16.29C18.2899 16.2705 18.5243 16.4512 18.4364 16.7637L17.6161 19.6494C17.1083 21.4365 18.2802 21.9248 19.1542 22.418ZM12.3817 31.1191C12.8163 31.4951 13.4511 31.4902 13.9735 30.9824L17.2401 27.7451C17.5331 27.457 17.5966 27.3789 17.7626 26.9492L19.0565 23.5996L18.622 23.3604C17.8505 22.9404 17.2938 22.5059 16.913 22.0469L15.7704 26.0947L12.3915 29.4541C11.8397 29.9912 11.9032 30.709 12.3817 31.1191Z" fill="#46F745"/>
</g>
<defs>
<clipPath id="clip0_1157_38">
<rect width="17.4432" height="22.5391" fill="white" transform="translate(12 9)"/>
</clipPath>
</defs>
</svg>
