<svg width="40" height="40" viewBox="0 0 40 40" fill="none" xmlns="http://www.w3.org/2000/svg">
<circle cx="20" cy="20" r="20" fill="#FF6026" fill-opacity="0.1"/>
<g clip-path="url(#clip0_1157_27)">
<path d="M17.9634 13.4417C18.9021 13.4417 19.6619 12.6733 19.6619 11.7269C19.6619 10.7684 18.9021 10 17.9634 10C17.0326 10 16.2689 10.7684 16.2689 11.7269C16.2689 12.6733 17.0326 13.4417 17.9634 13.4417ZM19.3357 25.7686C19.8329 26.7958 21.3166 26.1568 20.7836 25.0487L19.4988 22.3916C19.3835 22.149 19.2323 21.9023 19.0692 21.6758L18.1305 20.3209L18.1821 20.1551C18.4407 19.3544 18.5482 18.8812 18.5998 18.1047L18.747 15.9208C18.8226 14.8248 18.1702 14.02 17.1042 14.02C16.2928 14.02 15.7438 14.4366 15.0159 15.1645L13.8823 16.301C13.5084 16.673 13.3771 16.9925 13.3333 17.5021L13.1981 19.2937C13.1583 19.7912 13.4328 20.1349 13.8783 20.1511C14.3317 20.1875 14.6142 19.9003 14.6579 19.3908L14.821 17.4576L15.3023 17.0208C15.4654 16.8753 15.6881 16.9561 15.6802 17.1543L15.5648 18.7235C15.5012 19.5485 15.6802 19.9813 16.2649 20.7294L17.7804 22.6465C17.9157 22.8284 17.9395 22.9012 18.0072 23.0347L19.3357 25.7686ZM22.2077 16.9764H20.525L19.5585 15.8885L19.4153 17.8742L19.6658 18.129C19.9165 18.3838 20.1432 18.4646 20.6086 18.4646H22.2077C22.7048 18.4646 23.027 18.1775 23.027 17.7245C23.027 17.2675 22.6969 16.9764 22.2077 16.9764ZM14.2323 26.4601L16.4678 23.7707C16.6945 23.4957 16.7462 23.4269 16.8178 23.1399L16.8974 22.877L15.6165 21.2471L15.2943 22.7637L13.1106 25.3844C12.3429 26.3065 13.5959 27.2205 14.2323 26.4601ZM24.7892 19.5444C24.9164 19.8397 25.2943 19.9772 25.6165 19.8275L29.3516 18.0562C29.6618 17.9025 29.7932 17.5304 29.646 17.2069C29.5107 16.9117 29.1448 16.7782 28.8226 16.9319L25.0835 18.7032C24.7772 18.8529 24.6341 19.229 24.7892 19.5444ZM25.2148 25.991L26.0978 25.9344C26.2331 25.9304 26.3405 25.9304 26.4598 25.9506L27.8321 17.9753L26.4956 18.5779L25.2148 25.991ZM10.5847 28.9878H26.3723C26.961 28.9878 27.4304 28.5066 27.4304 27.8958C27.4304 27.1921 26.8854 26.7878 26.1854 26.8362L10.5807 27.7826C10.2586 27.8109 10 28.0577 10 28.3933C10 28.7209 10.2625 28.9878 10.5847 28.9878Z" fill="#FF6026"/>
</g>
<defs>
<clipPath id="clip0_1157_27">
<rect width="20" height="19" fill="white" transform="translate(10 10)"/>
</clipPath>
</defs>
</svg>
