<svg width="40" height="40" viewBox="0 0 40 40" fill="none" xmlns="http://www.w3.org/2000/svg">
<circle cx="20" cy="20" r="20" fill="#22A2FF" fill-opacity="0.1"/>
<g clip-path="url(#clip0_1157_33)">
<path d="M15.8847 30.6029L18.9631 26.8765C19.2795 26.4972 19.322 26.3916 19.4542 26.017L19.61 25.5464L17.8253 23.2655L17.3531 25.4791L14.3361 29.1287C13.269 30.4012 15.0065 31.6641 15.8847 30.6029ZM23.2313 30.2764C23.916 31.6881 25.9745 30.8141 25.238 29.2871L23.1511 24.9797C22.9953 24.6532 22.7734 24.3171 22.5609 24.0001L21.2625 22.1274L21.338 21.8969C21.6733 20.7924 21.8291 20.1394 21.9046 19.0734L22.1123 16.0529C22.2162 14.5451 21.3286 13.431 19.8508 13.431C18.7365 13.431 17.9763 14.0169 16.9801 15.0109L15.4079 16.5763C14.8885 17.0853 14.7044 17.5319 14.6524 18.2474L14.4636 20.7108C14.4069 21.3831 14.7988 21.8728 15.4079 21.8921C16.0358 21.9401 16.423 21.5512 16.4844 20.8404L16.711 18.1754L17.3673 17.5703C17.5892 17.3734 17.9008 17.4983 17.8772 17.7672L17.7167 19.9233C17.6317 21.0566 17.8819 21.6424 18.7034 22.6844L20.7715 25.3351C20.9745 25.5848 20.9981 25.676 21.0878 25.8585L23.2313 30.2764ZM26.8763 17.5127H24.5534L23.1605 15.9521L22.9858 18.7132L23.3777 19.1022C23.7412 19.4479 24.0434 19.5728 24.6761 19.5728H26.8763C27.5515 19.5728 28 19.1694 28 18.5355C28 17.9257 27.542 17.5127 26.8763 17.5127ZM21.0925 12.5379C22.3248 12.5379 23.3258 11.5246 23.3258 10.2713C23.3258 9.01802 22.3248 8 21.0925 8C19.8602 8 18.8593 9.01802 18.8593 10.2713C18.8593 11.5246 19.8602 12.5379 21.0925 12.5379Z" fill="#22A2FF"/>
</g>
<defs>
<clipPath id="clip0_1157_33">
<rect width="14" height="23" fill="white" transform="translate(14 8)"/>
</clipPath>
</defs>
</svg>
