<svg width="40" height="40" viewBox="0 0 40 40" fill="none" xmlns="http://www.w3.org/2000/svg">
<circle cx="20" cy="20" r="20" fill="#D633FF" fill-opacity="0.1"/>
<g clip-path="url(#clip0_1157_22)">
<path d="M20.4034 12.6143C21.6778 12.6143 22.708 11.584 22.708 10.3096C22.708 9.03516 21.6778 8 20.4034 8C19.1289 8 18.0938 9.03516 18.0938 10.3096C18.0938 11.584 19.1289 12.6143 20.4034 12.6143ZM15.4815 20.6758H16.9805C17.8497 20.6758 18.5186 20.0068 18.5186 19.1719V13.6982C18.5186 12.8584 17.8497 12.1894 16.9805 12.1894H15.9649C14.71 12.1894 13.9727 12.9268 13.9727 14.2012V19.1719C13.9727 20.0508 14.6026 20.6758 15.4815 20.6758ZM14.9639 30.9932L17.9473 27.4336C18.2354 27.0918 18.3623 26.8721 18.5577 26.4521L20.3399 22.6143C20.8526 21.5107 21.0332 20.5684 21.1211 19.3135L21.2285 17.834L22.6543 19.2891C23.0108 19.6553 23.3428 19.7676 23.9971 19.7676H26.4727C27.1709 19.7676 27.6348 19.3574 27.6348 18.7129C27.6348 18.0928 27.1612 17.6728 26.4727 17.6728H23.8799L20.8623 14.3916C20.3838 13.8691 19.7686 13.5176 18.9776 13.5176C18.3233 13.5176 17.7911 13.7129 17.2686 14.0498L16.751 20.1777C16.6729 21.0615 16.8047 21.6084 17.2344 22.2871L16.3702 25.8955L13.3477 29.4795C12.2393 30.793 14.0557 32.0723 14.9639 30.9932ZM24.5245 29.6357L22.42 25.3779C22.2539 25.041 22.0342 24.6943 21.8096 24.3672L21.1504 23.4443L20.0225 25.876C20.1495 26.0518 20.2129 26.1543 20.2715 26.2764L22.4346 30.6562C23.1475 32.0967 25.2862 31.1982 24.5245 29.6357ZM26.4141 14.8994C26.0137 14.8994 25.7159 15.1973 25.7159 15.5977V16.5889H26.4727C26.668 16.5889 26.878 16.6133 27.1075 16.6719V15.5977C27.1075 15.1973 26.8145 14.8994 26.4141 14.8994ZM26.4092 31.3984C26.8096 31.3984 27.1075 31.1006 27.1075 30.7002V20.7734C26.8926 20.8271 26.6778 20.8516 26.4727 20.8516H25.7159V30.7002C25.7159 31.1006 26.0088 31.3984 26.4092 31.3984Z" fill="#D633FF"/>
</g>
<defs>
<clipPath id="clip0_1157_22">
<rect width="14.9971" height="23.9551" fill="white" transform="translate(13 8)"/>
</clipPath>
</defs>
</svg>
